<?xml version="1.0" encoding="UTF-8"?>
<svg id="Layer_2" xmlns="http://www.w3.org/2000/svg" version="1.1" viewBox="0 0 192 39.1">
  <!-- Generator: Adobe Illustrator 30.4.0, SVG Export Plug-In . SVG Version: 2.1.4 Build 226)  -->
  <defs>
    <style>
      .st0, .st1 {
        fill: #fff;
      }

      .st1 {
        fill-rule: evenodd;
      }
    </style>
  </defs>
  <g id="Layer_1-2">
    <g>
      <path class="st0" d="M39.3,15.1v4.7h-2.4c-1,0-1.9.2-2.8.6-.9.4-1.6.9-2.3,1.5-.7.7-1.2,1.4-1.5,2.3s-.6,1.8-.6,2.8v12h-4.8v-12c0-1.7.3-3.2.9-4.7s1.5-2.7,2.6-3.8,2.4-1.9,3.8-2.5c1.5-.6,3-.9,4.6-.9h2.4Z"/>
      <path class="st0" d="M111.3,30.6l3.3,3.4-1.7,1.7c-1.1,1.1-2.4,2-3.9,2.6-1.4.6-3,.9-4.6.9s-3.1-.3-4.6-.9c-1.4-.6-2.8-1.5-3.9-2.6-1.2-1.2-2-2.5-2.6-4-.6-1.5-.8-3-.8-4.5s.3-3,.8-4.5c.6-1.5,1.4-2.8,2.6-3.9s2.5-2,4-2.6c1.5-.6,3-.9,4.5-.9s3,.3,4.5.9c1.5.6,2.8,1.5,4,2.6l1.7,1.6-13.2,13.2c1.3.7,2.8.9,4.3.7,1.5-.2,2.8-.9,4-2l1.7-1.6h0ZM99.5,22c-1.4,1.4-2.1,3.1-2.1,5.1s.2,2.1.7,3.1c.4-.4,1.1-1.1,1.9-1.9s1.8-1.8,2.8-2.8c1-1,1.9-1.9,2.8-2.8.9-.9,1.6-1.6,2.1-2.1-1.3-.7-2.8-.9-4.3-.7-1.5.2-2.8.9-4,2h0Z"/>
      <path class="st0" d="M140.6,15.2c-2,2.7-3.9,5.3-5.6,7.8-.7,1.1-1.5,2.1-2.3,3.2s-1.5,2.1-2.2,3.1c-.7,1-1.4,2-2,2.8-.6.9-1.2,1.6-1.6,2.2h14.2v4.7h-23.5c1.9-2.7,3.8-5.3,5.6-7.8.7-1.1,1.5-2.1,2.3-3.2.8-1.1,1.6-2.1,2.3-3.1s1.4-2,2-2.8c.6-.9,1.2-1.6,1.6-2.2h-14.2v-4.7h23.4,0Z"/>
      <path class="st0" d="M162.2,30.6l3.4,3.4-1.6,1.7c-1.1,1.1-2.4,2-3.9,2.6-1.4.6-3,.9-4.6.9s-3.1-.3-4.6-.9c-1.4-.6-2.8-1.5-3.9-2.6-1.2-1.2-2-2.5-2.6-4-.6-1.5-.9-3-.9-4.5s.3-3,.9-4.5c.6-1.5,1.4-2.8,2.6-3.9s2.5-2,4-2.6c1.5-.6,3-.9,4.5-.9s3,.3,4.5.9c1.5.6,2.8,1.5,4,2.6l1.6,1.6-13.2,13.2c1.4.7,2.8.9,4.3.7,1.5-.2,2.8-.9,4-2l1.6-1.6h0ZM150.4,22c-1.4,1.4-2.1,3.1-2.1,5.1s.2,2.1.7,3.1c.4-.4,1.1-1.1,1.9-1.9s1.8-1.8,2.8-2.8c1-1,1.9-1.9,2.8-2.8.9-.9,1.6-1.6,2.1-2.1-1.4-.7-2.8-.9-4.3-.7-1.5.2-2.8.9-4,2h0Z"/>
      <path class="st0" d="M168.1,27.1c0-1.7.3-3.2.9-4.7s1.5-2.7,2.6-3.8,2.4-1.9,3.8-2.5c1.4-.6,3-.9,4.6-.9s3.2.3,4.6.9c1.4.6,2.7,1.5,3.8,2.5s2,2.3,2.6,3.8.9,3,.9,4.7v12h-4.7v-12c0-1-.2-1.9-.6-2.8s-.9-1.6-1.5-2.3c-.7-.7-1.4-1.2-2.3-1.5-.9-.4-1.8-.6-2.8-.6s-1.9.2-2.8.6c-.9.4-1.6.9-2.3,1.5-.7.7-1.2,1.4-1.5,2.3s-.6,1.8-.6,2.8v12h-4.7v-12h0Z"/>
      <path class="st0" d="M11.9,5.7c1.7,0,3.2.3,4.7.9,1.4.6,2.7,1.5,3.8,2.5,1.1,1.1,2,2.3,2.6,3.8.6,1.4.9,3,.9,4.7s-.3,3.2-.9,4.6c-.6,1.5-1.5,2.7-2.6,3.8s-2.4,2-3.8,2.6c-1.4.6-3,.9-4.7.9h-7.2v9.6H0v-21.5c0-1.7.3-3.2.9-4.7.6-1.4,1.5-2.7,2.6-3.8s2.3-1.9,3.8-2.6c1.4-.6,3-.9,4.6-.9h0ZM11.9,24.8c1,0,1.9-.2,2.8-.6.9-.4,1.7-.9,2.3-1.5s1.2-1.4,1.5-2.3c.4-.9.6-1.8.6-2.8s-.2-1.9-.6-2.8c-.4-.9-.9-1.6-1.5-2.3-.7-.7-1.4-1.2-2.3-1.5-.9-.4-1.8-.6-2.8-.6s-1.9.2-2.8.6c-.9.4-1.6.9-2.3,1.5-.7.7-1.2,1.4-1.5,2.3s-.6,1.8-.6,2.8v7.2h7.2Z"/>
      <path class="st0" d="M70.3,19.4c-5.3-6.9-17.7-4.4-17.7,7.7v12h4.7v-12c0-8.2,10.7-9.7,10.7,0v12h4.7v-12c0-8.2,10.7-9.7,10.7,0v12h4.7v-12c0-12-12.5-14.7-17.8-7.7h0Z"/>
      <polygon class="st0" points="43.7 39.1 43.7 19.4 48 19.4 48 39.1 43.7 39.1 43.7 39.1"/>
      <polygon class="st0" points="43.7 16.5 43.7 11.8 48 11.8 48 16.5 43.7 16.5 43.7 16.5"/>
      <path class="st1" d="M38,3.3c4.3-4.4,11.4-4.4,15.7,0l-1.2,1.2c-3.7-3.6-9.6-3.6-13.2,0l-1.2-1.2h0Z"/>
      <path class="st1" d="M40.1,5.4c3.2-3.2,8.3-3.2,11.5,0l-1.4,1.4c-2.4-2.4-6.3-2.4-8.7,0l-1.4-1.4h0Z"/>
      <path class="st1" d="M42.4,7.7c1.9-1.9,5-1.9,6.9,0l-1.3,1.4c-1.2-1.2-3-1.2-4.2,0l-1.4-1.3h0Z"/>
    </g>
  </g>
</svg>