<?xml version="1.0" encoding="UTF-8"?>
<svg id="Layer_2" data-name="Layer 2" xmlns="http://www.w3.org/2000/svg" viewBox="0 0 192.01 39.13">
  <defs>
    <style>
      .cls-1 {
        fill-rule: evenodd;
      }

      .cls-1, .cls-2 {
        fill: #ec1c24;
      }

      .cls-3 {
        fill: #383535;
      }
    </style>
  </defs>
  <g id="Layer_1-2" data-name="Layer 1">
    <g>
      <path class="cls-3" d="M39.33,15.14v4.73h-2.39c-.99,0-1.92.19-2.79.56-.87.37-1.63.89-2.29,1.54-.66.66-1.17,1.42-1.54,2.29-.37.87-.56,1.8-.56,2.79v11.97h-4.79v-11.97c0-1.67.31-3.22.93-4.66.62-1.44,1.48-2.7,2.58-3.78,1.1-1.08,2.38-1.93,3.83-2.55,1.45-.62,3-.93,4.63-.93h2.39Z"/>
      <path class="cls-3" d="M111.35,30.62l3.35,3.35-1.65,1.65c-1.13,1.14-2.43,2-3.88,2.61-1.45.6-2.98.9-4.58.9s-3.12-.3-4.58-.9c-1.45-.6-2.75-1.47-3.88-2.61-1.17-1.17-2.04-2.49-2.61-3.96-.57-1.47-.85-2.97-.85-4.5s.28-3.01.85-4.47c.57-1.45,1.44-2.77,2.61-3.94,1.17-1.17,2.49-2.05,3.96-2.63,1.47-.59,2.97-.88,4.5-.88s3.02.29,4.5.88c1.47.59,2.79,1.46,3.96,2.63l1.65,1.65-13.25,13.25c1.35.67,2.78.9,4.28.66,1.51-.23,2.83-.91,3.96-2.05l1.65-1.65h0ZM99.49,22.05c-1.42,1.42-2.13,3.12-2.13,5.11,0,1.1.25,2.15.74,3.14.43-.43,1.07-1.07,1.94-1.94.87-.87,1.79-1.79,2.77-2.77.98-.98,1.92-1.91,2.82-2.79.9-.89,1.6-1.58,2.1-2.08-1.35-.67-2.78-.9-4.28-.69-1.51.21-2.83.89-3.96,2.02h0Z"/>
      <path class="cls-3" d="M140.65,15.19c-1.99,2.7-3.85,5.28-5.59,7.77-.74,1.06-1.51,2.14-2.29,3.22-.78,1.08-1.53,2.13-2.23,3.14-.71,1.01-1.38,1.95-2.02,2.82-.64.87-1.17,1.6-1.6,2.21h14.2v4.73h-23.46c1.95-2.7,3.81-5.28,5.59-7.77.74-1.06,1.52-2.14,2.31-3.22.8-1.08,1.55-2.13,2.26-3.14.71-1.01,1.38-1.95,2.02-2.82.64-.87,1.17-1.6,1.6-2.21h-14.2v-4.74h23.41Z"/>
      <path class="cls-3" d="M162.23,30.62l3.35,3.35-1.65,1.65c-1.13,1.14-2.43,2-3.88,2.61-1.45.6-2.98.9-4.58.9s-3.12-.3-4.58-.9c-1.45-.6-2.75-1.47-3.88-2.61-1.17-1.17-2.04-2.49-2.61-3.96-.57-1.47-.85-2.97-.85-4.5s.28-3.01.85-4.47c.57-1.45,1.44-2.77,2.61-3.94,1.17-1.17,2.49-2.05,3.96-2.63,1.47-.59,2.97-.88,4.5-.88s3.02.29,4.5.88c1.47.59,2.79,1.46,3.96,2.63l1.65,1.65-13.25,13.25c1.35.67,2.78.9,4.28.66,1.51-.23,2.83-.91,3.96-2.05l1.65-1.65h0ZM150.37,22.05c-1.42,1.42-2.13,3.12-2.13,5.11,0,1.1.25,2.15.74,3.14.43-.43,1.07-1.07,1.94-1.94.87-.87,1.79-1.79,2.77-2.77.98-.98,1.92-1.91,2.82-2.79.9-.89,1.6-1.58,2.1-2.08-1.35-.67-2.78-.9-4.28-.69-1.51.21-2.83.89-3.96,2.02h0Z"/>
      <path class="cls-3" d="M168.12,27.11c0-1.67.31-3.22.93-4.66.62-1.44,1.47-2.7,2.55-3.78,1.08-1.08,2.35-1.93,3.8-2.55,1.45-.62,3-.93,4.63-.93s3.22.31,4.65.93c1.44.62,2.7,1.47,3.8,2.55,1.1,1.08,1.96,2.34,2.58,3.78.62,1.44.93,2.99.93,4.66v11.97h-4.73v-11.97c0-.99-.19-1.92-.56-2.79-.37-.87-.89-1.63-1.54-2.29-.66-.66-1.43-1.17-2.31-1.54-.89-.37-1.83-.56-2.82-.56s-1.92.19-2.79.56c-.87.37-1.63.89-2.29,1.54-.66.66-1.17,1.42-1.54,2.29s-.56,1.8-.56,2.79v11.97h-4.73v-11.97h0Z"/>
      <path class="cls-3" d="M11.92,5.67c1.67,0,3.22.31,4.66.93,1.44.62,2.7,1.47,3.8,2.55,1.1,1.08,1.96,2.34,2.58,3.78.62,1.44.93,2.99.93,4.66s-.31,3.17-.93,4.63c-.62,1.45-1.48,2.73-2.58,3.83-1.1,1.1-2.37,1.96-3.8,2.58-1.44.62-2.99.93-4.66.93h-7.18v9.58H0v-21.55c0-1.67.31-3.22.93-4.66.62-1.44,1.47-2.7,2.55-3.78,1.08-1.08,2.35-1.93,3.8-2.55,1.45-.62,3-.93,4.63-.93h0ZM11.92,24.82c.99,0,1.93-.19,2.82-.56.89-.37,1.66-.89,2.31-1.54.66-.66,1.17-1.43,1.54-2.31.37-.89.56-1.83.56-2.82s-.19-1.92-.56-2.79c-.37-.87-.89-1.63-1.54-2.29-.66-.66-1.43-1.17-2.31-1.54-.89-.37-1.83-.56-2.82-.56s-1.92.19-2.79.56c-.87.37-1.63.89-2.29,1.54-.66.66-1.17,1.42-1.54,2.29-.37.87-.56,1.8-.56,2.79v7.24h7.18Z"/>
      <path class="cls-3" d="M70.31,19.36c-5.34-6.86-17.72-4.44-17.72,7.74v11.97h4.74v-11.97c0-8.19,10.66-9.74,10.66,0v11.97h4.73v-11.97c0-8.19,10.66-9.74,10.66,0v11.97h4.73v-11.97c0-11.97-12.5-14.72-17.8-7.74h0Z"/>
      <polygon class="cls-2" points="43.72 39.08 43.72 19.41 47.98 19.41 47.98 39.08 43.72 39.08 43.72 39.08"/>
      <polygon class="cls-2" points="43.73 16.52 43.73 11.77 47.98 11.77 47.98 16.52 43.73 16.52 43.73 16.52"/>
      <path class="cls-1" d="M37.99,3.28c4.33-4.36,11.37-4.38,15.73-.05l-1.24,1.25c-3.67-3.64-9.59-3.62-13.23.04l-1.25-1.24h0Z"/>
      <path class="cls-1" d="M40.13,5.41c3.15-3.17,8.28-3.19,11.45-.04l-1.37,1.38c-2.41-2.39-6.3-2.38-8.7.03l-1.38-1.37h0Z"/>
      <path class="cls-1" d="M42.4,7.67c1.91-1.92,5.01-1.93,6.93-.02l-1.35,1.36c-1.17-1.16-3.05-1.15-4.21.01l-1.36-1.35h0Z"/>
    </g>
  </g>
</svg>